<?xml version="1.0" standalone="no"?>
<!DOCTYPE svg PUBLIC "-//W3C//DTD SVG 20010904//EN"
 "http://www.w3.org/TR/2001/REC-SVG-20010904/DTD/svg10.dtd">
<svg version="1.0" xmlns="http://www.w3.org/2000/svg"
 width="54.000000pt" height="33.000000pt" viewBox="0 0 54.000000 33.000000"
 preserveAspectRatio="xMidYMid meet">

<g transform="translate(0.000000,33.000000) scale(0.100000,-0.100000)"
fill="#000000" stroke="none">
<path d="M124 297 c-2 -7 -3 -71 -2 -143 l3 -129 134 -3 c90 -2 138 1 147 9
18 15 20 249 2 267 -18 18 -277 17 -284 -1z m134 -40 c18 -14 16 -87 -3 -87
-10 0 -16 12 -17 38 l-1 37 -4 -37 c-6 -51 -33 -53 -33 -2 0 21 -4 33 -10 29
-5 -3 -10 -20 -10 -36 0 -20 -4 -29 -12 -27 -19 6 -22 63 -4 80 16 17 75 20
94 5z m103 3 c35 -19 14 -90 -27 -90 -16 0 -54 35 -54 50 0 13 37 50 51 50 6
0 19 -5 30 -10z m-103 -113 c18 -14 16 -87 -3 -87 -10 0 -16 12 -17 38 l-1 37
-4 -37 c-6 -51 -33 -53 -33 -2 0 21 -4 33 -10 29 -5 -3 -10 -20 -10 -36 0 -20
-4 -29 -12 -27 -19 6 -22 63 -4 80 16 17 75 20 94 5z m106 -3 c32 -31 11 -84
-33 -84 -14 0 -51 37 -51 50 0 15 38 50 54 50 8 0 22 -7 30 -16z"/>
<path d="M316 232 c-2 -4 -1 -14 4 -22 7 -11 12 -12 21 -3 6 6 8 16 5 22 -8
13 -23 14 -30 3z"/>
<path d="M317 115 c-8 -18 11 -31 25 -17 11 11 3 32 -12 32 -4 0 -10 -7 -13
-15z"/>
</g>
</svg>
